<?xml version="1.0" encoding="utf-8"?>
<!-- Generator: Adobe Illustrator 23.0.5, SVG Export Plug-In . SVG Version: 6.00 Build 0)  -->
<svg version="1.1" id="Capa_1" xmlns="http://www.w3.org/2000/svg" xmlns:xlink="http://www.w3.org/1999/xlink" x="0px" y="0px"
	 viewBox="0 0 100 100" style="enable-background:new 0 0 100 100;" xml:space="preserve">
<style type="text/css">
	.st0{fill:#E6B54A;}
</style>
<g>
	<g>
		<path class="st0" d="M46.02,1.38c2.5,0,4.99,0,7.49,0c2.75,0.44,5.53,0.75,8.25,1.35c0.93,0.36,1.89,0.6,2.86,0.8
			c3.23,1.09,6.35,2.46,9.37,4.03c0.79,0.48,1.58,0.97,2.37,1.45c2.65,1.73,5.12,3.69,7.46,5.81c0.7,0.71,1.41,1.41,2.11,2.12
			c0.07,0.62,0.7,0.77,1.04,1.16c1.72,2,3.25,4.14,4.74,6.31c0.43,0.71,0.86,1.42,1.28,2.13c0.05,0.18,0.08,0.38,0.17,0.54
			c1.73,2.9,2.89,6.04,3.95,9.23c0.24,0.84,0.48,1.67,0.72,2.51c0.27,1.78,0.61,3.55,0.89,5.33c0.13,0.84-0.27,1.8,0.45,2.54
			c0,2.62,0,5.25,0,7.87c-0.27,0.13-0.18,0.38-0.2,0.59c-0.37,3.75-1.17,7.41-2.34,10.99c-1.02,3.12-2.46,6.07-4,8.96l0.01-0.01
			c-0.05,0.07-0.1,0.13-0.15,0.2c-0.11,0.16-0.22,0.31-0.32,0.47c-2.75,4.58-6.18,8.58-10.21,12.08c-2.29,1.99-4.83,3.61-7.35,5.28
			c-0.15,0.06-0.3,0.11-0.44,0.18c-5.35,3.03-11.06,4.99-17.16,5.86c-1.11,0.16-2.27,0.1-3.34,0.51c-2.5,0-4.99,0-7.49,0
			c-0.07-0.06-0.14-0.16-0.21-0.16c-2.47-0.13-4.87-0.75-7.32-1.08c-0.91-0.4-1.9-0.58-2.86-0.83c-3.4-1.04-6.6-2.53-9.76-4.13
			c-0.71-0.43-1.42-0.86-2.13-1.29c-2.62-1.76-5.13-3.66-7.48-5.78c-0.7-0.7-1.41-1.4-2.11-2.1c-2.13-2.35-4.09-4.82-5.82-7.47
			c-0.48-0.79-0.96-1.58-1.44-2.37c-1.58-3.02-2.94-6.15-4.04-9.37c-0.25-0.89-0.5-1.79-0.75-2.68C2.02,60.95,1.76,59.47,1.47,58
			c-0.24-1.2-0.13-2.46-0.57-3.63c0-2.56,0-5.12,0-7.68c0.27-0.17,0.17-0.45,0.2-0.69c0.41-3.66,1.08-7.26,2.23-10.78
			c0.94-2.88,2.26-5.58,3.57-8.29c0.14-0.21,0.29-0.41,0.42-0.63c3.11-5.49,7.17-10.16,12.07-14.13c2.22-1.8,4.63-3.3,7.05-4.79
			c0.26-0.11,0.53-0.21,0.78-0.35c4.69-2.49,9.67-4.11,14.9-5.02C43.41,1.78,44.75,1.83,46.02,1.38z M81.54,69.54
			c0.16-0.08,0.2-0.22,0.22-0.38c3.52-5.78,5.14-12.08,5.12-18.82c0.13-1.17-0.14-2.31-0.19-3.46c-0.31-3.76-1.24-7.35-2.77-10.79
			c-0.33-0.85-0.67-1.71-1.2-2.46c-1.42-3-3.34-5.64-5.62-8.04c-0.56-0.71-1.19-1.36-1.91-1.91c-2.31-2.28-4.92-4.14-7.82-5.61
			c-0.81-0.51-1.67-0.92-2.56-1.26c-3.47-1.58-7.12-2.53-10.91-2.89c-1.09-0.09-2.18-0.3-3.29-0.19c-1.95-0.14-3.89,0.07-5.82,0.35
			c-4.39,0.64-8.56,1.94-12.42,4.19c-0.12,0.07-0.25,0.15-0.37,0.22l0,0c-2.37,1.17-4.44,2.76-6.4,4.5
			c-3.08,2.73-5.7,5.84-7.61,9.51c0,0,0,0,0,0c-0.07,0.12-0.14,0.25-0.22,0.37c-3.21,5.66-4.66,11.75-4.55,18.23
			c-0.11,1.1,0.11,2.19,0.2,3.28c0.35,3.8,1.32,7.44,2.89,10.92c0.31,0.81,0.67,1.59,1.14,2.32c0.29,1.12,1.05,1.98,1.66,2.92
			c1.21,1.83,2.48,3.61,4.08,5.13c0.55,0.72,1.19,1.34,1.9,1.9c0.88,0.92,1.88,1.71,2.9,2.46c1.65,1.2,3.33,2.36,5.16,3.28
			c0.86,0.26,1.55,0.92,2.45,1.08c3.45,1.53,7.04,2.46,10.8,2.78c1.15,0.14,2.3,0.29,3.46,0.19c2.28,0.15,4.52-0.14,6.74-0.57
			c4.28-0.82,8.37-2.19,12.08-4.54c0.12-0.08,0.25-0.15,0.37-0.23l0,0c2.02-1.05,3.79-2.46,5.47-3.97
			C77.29,75.57,79.73,72.8,81.54,69.54L81.54,69.54z"/>
	</g>
	<path class="st0" d="M44.81,75.29c-0.51-0.9-0.79-1.87-0.94-2.88c0-4.54,0-9.08,0-13.63c0.01-0.16,0.03-0.32,0.03-0.47
		c0.02-1.7,0.02-1.7-1.73-1.61c-4.54,0-9.08,0-13.62,0c-0.98-0.03-1.89-0.34-2.81-0.64c-1.89-1.17-3.14-2.79-3.32-5.07
		c-0.28-3.53,2.49-6.55,6.06-6.6c2.97-0.04,5.93-0.03,8.9-0.04c1.22,0,2.44,0,3.66,0c2.99,0.16,2.99,0.16,2.84-2.84
		c0-1.22,0-2.44,0-3.66c0.01-2.81,0.03-5.62,0.03-8.42c0.01-3.09,1.64-5.45,4.34-6.28c2.73-0.85,5.4,0.22,7.16,2.85
		c0.05,0.08,0.12,0.14,0.18,0.22c0.3,0.92,0.61,1.83,0.64,2.81c0,4.54,0,9.08,0,13.62c0,2.04-0.51,1.74,2.08,1.7
		c4.54,0,9.08,0,13.62,0c1,0.2,2,0.43,2.88,0.98c2.42,1.73,3.42,4.48,2.58,7.07c-0.86,2.65-3.18,4.25-6.15,4.26
		c-2.71,0.01-5.43,0.02-8.14,0.03c-1.22,0-2.44,0-3.66,0c-3.41-0.2-3.41-0.2-3.22,3.22c0,1.22,0,2.44,0,3.65
		c-0.01,2.59-0.03,5.17-0.03,7.76c-0.01,3.3-1.45,5.55-4.18,6.5C49.36,78.76,46.83,77.86,44.81,75.29z"/>
</g>
</svg>
