<?xml version="1.0" encoding="utf-8"?>
<!-- Generator: Adobe Illustrator 23.0.5, SVG Export Plug-In . SVG Version: 6.00 Build 0)  --> <!--Create for daniel cubillso web developer-->
<svg version="1.1" id="Capa_1" xmlns="http://www.w3.org/2000/svg" xmlns:xlink="http://www.w3.org/1999/xlink" x="0px" y="0px"
	 viewBox="0 0 252.96 254.85" style="enable-background:new 0 0 252.96 254.85;" xml:space="preserve">
<style type="text/css">
	.st0{fill:#313131;}
</style>
<path class="st0" d="M127.1,254.85c-2.44-0.01-4.88-0.02-7.31-0.03c-2.44-0.02-4.84-0.76-7.3-0.49c-0.61-0.36-1.26-0.51-1.97-0.42
	c-0.15-0.09-0.3-0.09-0.46-0.02c-0.81-0.04-1.61-0.08-2.42-0.12c-0.76-0.51-1.61-0.43-2.45-0.36c-2.44-0.48-4.88-0.96-7.33-1.44
	c-2.42-0.53-4.85-1.07-7.27-1.6c-2.45-0.76-4.9-1.53-7.34-2.29c-5.1-1.38-9.75-3.87-14.6-5.89c-1.37-0.78-2.68-1.67-4.24-2.03
	c-0.21-0.15-0.42-0.31-0.63-0.46c0,0,0.01,0.01,0.01,0.01c-0.82-0.46-1.63-0.93-2.45-1.39c-0.4-0.28-0.75-0.69-1.32-0.59
	c-0.21-0.15-0.42-0.3-0.63-0.46l0.01,0.01c-0.32-0.2-0.64-0.4-0.96-0.6c-1.27-0.83-2.4-1.89-3.89-2.37
	c-0.98-1.03-2.26-1.65-3.45-2.38c-1.44-1.02-2.88-2.04-4.32-3.06c-5.41-4.35-10.61-8.92-15.49-13.88
	c-3.68-3.74-6.77-7.98-10.26-11.87c-0.52-1.52-1.71-2.59-2.63-3.84c-0.8-1.12-1.24-2.49-2.3-3.44c-1.44-2.44-2.89-4.88-4.33-7.31
	c-0.19-0.73-0.44-1.43-1.04-1.94c0.08-0.63-0.38-1.01-0.69-1.47c-0.11-0.16-0.22-0.32-0.33-0.48l0.01,0.02
	c-0.16-0.33-0.33-0.66-0.49-0.99l0.01,0.01c-0.16-0.33-0.33-0.66-0.49-0.99l0.01,0.01c-0.16-0.33-0.33-0.67-0.49-1
	c0.04-0.17,0.01-0.32-0.09-0.46c-1.6-3.73-3.2-7.46-4.8-11.19c-0.51-1.62-1.03-3.24-1.54-4.86c-0.6-1.96-1.2-3.93-1.8-5.89
	c-0.53-2.43-1.06-4.85-1.59-7.28c-0.45-2.63-0.91-5.26-1.36-7.88c-0.19-2.25-0.37-4.49-0.56-6.74c-0.01-0.49-0.02-0.98-0.03-1.48
	c0.08-0.16,0.07-0.31-0.02-0.46c0.08-0.42,0.06-0.79-0.38-1c-0.02-1.46-0.04-2.91-0.05-4.37c0.22-2.44,0.22-4.88,0-7.32
	c0.02-0.97,0.04-1.94,0.05-2.91c0.44-0.21,0.47-0.58,0.38-1c0.09-0.15,0.09-0.3,0.02-0.46c0-0.49,0.01-0.99,0.01-1.48
	c0.08-0.16,0.08-0.31,0-0.47c0.02-0.33,0.03-0.66,0.05-0.99c0.62-2.39,0.87-4.84,0.94-7.3c0.02-0.29,0.05-0.58,0.07-0.87
	c0.09-0.18,0.19-0.37,0.28-0.55c0.36-1.97,0.71-3.94,1.07-5.91c0.65-2.59,1.3-5.18,1.95-7.78c0.68-2.27,1.36-4.55,2.04-6.82
	c0.56-0.35,0.46-0.92,0.49-1.45c1.1-1.83,1.59-3.91,2.34-5.87c1-2.26,2.01-4.53,3.01-6.79c0.9-1.18,1.48-2.52,2-3.89
	c0.63-1.14,1.27-2.28,1.9-3.42c1.48-2.43,2.95-4.86,4.43-7.29c0.74-0.47,0.95-1.32,1.4-1.99c1.14-1.6,2.29-3.2,3.43-4.8
	c1.16-1.48,2.32-2.95,3.47-4.43c1.04-0.73,1.74-1.74,2.4-2.8c1.6-1.69,3.21-3.38,4.81-5.07c1.12-0.81,2.09-1.77,2.9-2.9
	c1.5-1.07,2.8-2.36,4.01-3.74c1.66-0.92,2.93-2.3,4.32-3.54c1-0.77,1.99-1.54,2.99-2.31c2.42-1.66,4.84-3.33,7.26-4.99
	c0.18-0.12,0.36-0.25,0.54-0.37c2.25-1.35,4.51-2.71,6.76-4.06c2.12-1.12,4.23-2.24,6.35-3.36c0,0-0.01,0.01-0.01,0.01
	c0.33-0.16,0.66-0.33,0.99-0.49c0,0-0.01,0.01-0.01,0.01c2.75-1.18,5.5-2.37,8.24-3.55c4.56-1.56,9.13-3.12,13.69-4.68
	c2.43-0.54,4.85-1.07,7.28-1.61c2.44-0.47,4.88-0.95,7.32-1.42c2.47-0.07,4.91-0.35,7.33-0.87c0.81-0.03,1.61-0.07,2.42-0.1
	c0,0,0.24,0.03,0.24,0.03l0.23-0.07c1.47-0.14,2.94-0.28,4.4-0.42c2.43,0,4.87,0,7.3,0c1.46,0.01,2.91,0.02,4.37,0.02l0.01,0
	c0.89,0.86,1.95,0.38,2.95,0.39c2.24,0.2,4.49,0.41,6.73,0.61c2.63,0.45,5.26,0.89,7.88,1.34c2.43,0.51,4.86,1.02,7.3,1.53
	c2.11,0.63,4.23,1.25,6.34,1.88c0.97,0.32,1.94,0.65,2.9,0.97c1.13,0.35,2.26,0.71,3.39,1.06c3.09,1.28,6.19,2.57,9.28,3.85
	c1.45,0.68,2.91,1.36,4.36,2.05c0.97,0.51,1.94,1.02,2.91,1.53c2.24,1.28,4.49,2.55,6.73,3.83c0.88,0.83,1.84,1.53,3,1.94
	c1.31,1.17,2.71,2.2,4.31,2.94c4.29,3.51,8.74,6.81,12.84,10.54c5.5,5,10.22,10.69,15.01,16.34c0.17,0.83,0.74,1.37,1.38,1.86
	c0.82,1.58,1.84,3.02,2.99,4.37c1.48,2.43,2.96,4.85,4.44,7.28c0.15,0.21,0.31,0.42,0.46,0.63c0.98,2.31,2.11,4.55,3.44,6.68
	c2.27,5.55,4.53,11.11,6.8,16.66c-0.08,0.15-0.05,0.28,0.07,0.4c-0.05,0.43,0.1,0.78,0.42,1.08c-0.08,0.15-0.06,0.28,0.07,0.39
	c-0.05,0.43,0.1,0.78,0.42,1.08c0.04,0.29,0.08,0.58,0.11,0.87c0.94,3.75,1.88,7.5,2.82,11.25c-0.19,1.65,0.27,3.22,0.57,4.81
	c-0.21,2.52,1.08,4.83,1.01,7.32c-0.21,1.51-0.08,2.98,0.55,4.39c-0.01,4.87-0.02,9.73-0.03,14.6c-0.06,0.3-0.12,0.6-0.18,0.89
	c-0.41,0.26-0.35,0.65-0.28,1.05c-0.02,0.32-0.04,0.65-0.06,0.97c-0.15,1.8-0.31,3.6-0.46,5.4c-0.13,0.13-0.15,0.28-0.06,0.45
	c-0.04,0.48-0.08,0.96-0.12,1.45c-0.93,4.88-1.87,9.76-2.8,14.64c-0.68,2.43-1.35,4.87-2.03,7.3c-0.91,2.44-1.82,4.87-2.73,7.31
	c-0.2,0.66-0.8,1.19-0.67,1.96c-0.79,1.79-1.59,3.57-2.38,5.36c-1.11,2.02-2.29,3.99-3.01,6.2c-1.01,0.98-1.43,2.29-2.01,3.51
	c-1.24,1.46-2.17,3.1-2.94,4.85c-3.7,4.88-7.41,9.76-11.11,14.64c-2.31,2.43-4.62,4.87-6.93,7.3c-0.13,0.13-0.26,0.26-0.38,0.38
	c-2.27,2.02-4.56,4.01-6.81,6.05c-5.01,4.54-10.7,8.16-16.18,12.07c-1.89,0.74-3.59,1.8-5.24,2.97c-0.47,0.21-0.94,0.41-1.41,0.62
	c-2.47,1.24-4.94,2.49-7.41,3.73c-5,1.83-10.01,3.65-15.01,5.48c-1.97,0.52-3.94,1.04-5.91,1.56c-0.17,0.1-0.34,0.21-0.51,0.31
	l0.01-0.05c-2.75,0.54-5.62,0.76-8.2,1.75c-1.14,0.44-2.65-0.1-3.47,1.16c-0.64,0.02-1.28,0.04-1.92,0.06
	c-0.68-0.75-1.37-0.38-2.06-0.03c-0.78,0.04-1.56,0.08-2.34,0.11c-0.51,0.03-1.06-0.07-1.48,0.35c-0.8,0.04-1.61,0.08-2.41,0.12
	C131.97,254.54,129.53,254.7,127.1,254.85z M77.16,193.34c0,0.35,0.01,0.7,0.01,1.05c-0.06,0.97-0.12,1.93-0.17,2.9
	c0.1,0.01,0.2,0.02,0.3,0.03c0.15-0.98,0.3-1.95,0.45-2.93c0.06-3.53,0.12-7.07,0.18-10.6c0.78-2.33,0.32-4.72,0.3-7.1
	c-0.41,1.17-0.99,2.29-0.76,3.59c-0.06,3.53-0.66,7.06-0.1,10.6C76.8,191.66,77.01,192.5,77.16,193.34z M109.13,59.43
	c-0.1,3.59,0.78,7.05,1.46,10.53c0.26,1.34,1.04,1.83,2.49,1.24c2.31-0.96,4.69-1.75,7.04-2.59c3.06-1.1,6.13-2.2,9.3-3.33
	c0.06,1.19-0.49,1.82-0.88,2.5c-2.95,5.02-5.88,10.04-8.89,15.02c-1,1.65-0.87,2.3,1.25,2.55c4.89,0.58,9.75,1.4,14.61,2.17
	c0.58,0.09,1.48-0.17,1.65,0.67c0.15,0.72-0.64,1.06-1.09,1.48c-3.78,3.55-7.59,7.07-11.39,10.59c-1.73,1.6-1.68,1.95,0.43,2.84
	c4.49,1.89,8.97,3.79,13.83,5.84c-2.5,1.54-4.58,2.92-6.75,4.13c-3.75,2.1-7.75,3.64-11.86,4.9c-2.81,0.86-2.81,0.99-0.61,3.05
	c2.58,2.41,5.82,3.76,8.83,5.49c0.53,0.31,1.39,0.38,1.36,1.19c-0.03,0.78-0.89,0.85-1.42,1.15c-2.96,1.67-6.03,3.15-9.31,4.01
	c-1.53,0.4-1.57,1.01-1.12,2.19c0.77,2.03,1.46,4.1,2.25,6.13c0.41,1.07,0.09,1.48-1,1.57c-1.69,0.14-3.37,0.32-5.05,0.57
	c-1.9,0.28-2.42,1.48-1.37,3.11c0.35,0.54,0.75,1.05,1.17,1.55c2.77,3.34,2.77,3.34-1.36,4.69c-2.34,0.77-4.83,1.04-6.28,3.61
	c-1.62,2.86-4.44,4.37-7.51,5.42c-2.18,0.74-2.6,3.32-1.42,5.3c1.09,1.84,2.62,0.54,3.88,1.06c4.49,1.83,9.26,2.77,13.97,3.84
	c1.45,0.33,2.27,0.83,2.57,2.39c0.36,1.89,1.05,3.72,1.59,5.58c4.07,14.09,8.44,28.09,11.6,42.44c0.55,2.51,0.42,5.29,2.27,7.93
	c0.37-2.88,0.85-5.33,0.98-7.81c0.45-8.19,3.07-15.62,7.39-22.54c0.8-1.29,1.57-1.65,2.89-1.12c6.75,3.08,13.86,4.07,21.2,3.81
	c-7.24-0.33-14.17-1.89-20.71-5.08c-7.95-4.14-13.56-10.4-16.93-18.75c0.3,1.52,0.78,2.95,1.34,4.34c0.45,1.09,0.08,1.64-1.01,1.45
	c-2.92-0.5-5.44-1.74-6.66-4.63c-1.12-2.65-1.15-5.56,1.01-7.47c2.38-2.11,1.71-3.76,0.22-5.67c-3.6-4.59-3.94-9.47-1.66-14.77
	c0.89-2.05,2.11-4.23,1.76-6.49c-0.63-4.01,1-7.05,3.35-9.97c1.42-1.76,2.71-3.62,4.1-5.41c11.27-14.59,26.48-17.91,43.75-15.18
	c4.17,0.66,7.45,3.42,11.25,4.91c3.15,1.24,5.63,3.11,7.7,5.66c2.19,2.71,4.41,5.41,6.13,8.45c2.37,4.19,4.92,8.26,4.83,13.48
	c-0.05,3,0.36,6.1,1.18,9.07c0,1.88,0,3.76,0,5.64c-0.71,3.82-3.39,7.71,0.39,11.38c0.1,0.1,0.08,0.31,0.14,0.46
	c1.28,3.86-1.1,8.14-5.44,9.78c-1.21,0.45-2.41,0.81-3.15,2.08c-2.52,4.36-6.09,7.74-10.23,10.52c-1.33,0.89-1.54,1.62-0.4,2.86
	c1.88,2.05,3.12,4.49,4.12,7.08c1.45,3.75,2.06,7.72,3.2,11.79c0.34-1.14,0.38-2.07,0.07-2.89c-1.14-3.06,0.01-5.15,2.4-7.13
	c5.58-4.6,10.42-9.96,14.81-15.7c8.03-10.48,14.04-22.04,17.85-34.68c2.61-8.68,4.34-17.55,4.48-26.66c0.25-3.89,0.22-7.78,0-11.67
	c-0.33-6.06-0.95-12.08-2.38-17.98c-6.77-28.1-21.95-50.47-45.84-66.81c-17.91-12.24-37.87-18.34-59.46-18.82
	c-12.4-0.27-24.57,1.55-36.44,5.52c-20.94,7-38.39,18.96-51.93,36.31c-19.67,25.21-26.96,53.8-22.19,85.44
	c3.33,22.07,13.04,41.05,27.97,57.46c1.83,2.01,4.16,3.69,2.78,6.94c-0.03,0.07,0.12,0.22,0.2,0.35c0.56-0.44,0.66-1.07,0.84-1.69
	c2.88-9.99,5.88-19.94,8.61-29.97c0.68-2.5,2.06-3.47,4.34-4.16c5.64-1.7,11.22-3.61,16.81-5.47c1.14-0.38,1.89-1.04,1.88-2.47
	c-0.01-1.45-0.57-2.31-1.9-2.71c-3.06-0.93-5.72-2.57-8.24-4.47c-6.34-7.81-8.6-17.2-10.34-26.78c-0.36-2-0.53-4.04-0.78-6.06
	c-0.32,2.81-0.34,5.52,0.23,8.2c1.57,7.33,3.01,14.7,7.19,21.16c0.73,1.12,1.93,1.99,2.06,3.48c-0.52,0.22-1.04,0.44-1.55,0.66
	c-4.31,1.89-4.31,1.89-4.9-2.56c-0.66-4.68-0.66-4.68-5.44-4.35c-0.08,0.01-0.16,0.03-0.24,0.04c-1.51,0.34-3.03,0.42-4.57,0.42
	c-1.45,0-1.83-0.47-1.4-1.93c0.81-2.7,1.24-5.52,2.16-8.17c0.81-2.31-0.19-3.03-2.14-3.58c-3.02-0.85-5.97-1.98-9-2.8
	c-1.87-0.51-2.31-1.06-0.9-2.66c2.48-2.79,4.93-5.62,7.95-7.83c1.71-1.25,1.61-2.18,0.34-3.62c-3.43-3.89-7.53-6.55-12.69-7.53
	c-1.41-0.27-3.08-0.02-4.3-1.48c4.75-3.3,9.37-6.56,14.06-9.72c1.81-1.22,2.1-2.38,1.04-4.43c-2.86-5.54-7.24-9.7-11.7-13.83
	c-0.35-0.33-0.9-0.49-0.75-1.08c0.16-0.64,0.75-0.47,1.2-0.5c6.69-0.49,13.38-1.02,20.08-1.43c1.69-0.1,2.28-0.7,2.12-2.39
	c-0.23-2.52-1.04-4.88-1.66-7.3c-0.83-3.24-2.61-6.11-4.17-9.33c0.92,0.04,1.49,0.01,2.03,0.11c5.12,0.94,10,2.57,14.47,5.27
	c1.41,0.85,2.23,0.59,2.8-0.88c1.05-2.71,1.93-5.47,2.6-8.3c0.88-3.73,0.92-7.59,1.74-11.64c0.77,0.73,1.28,1.23,1.8,1.72
	c4.27,4.02,7.75,8.69,11.09,13.47c1.62,2.31,1.85,2.24,3.63,0.06c4.85-5.93,11.02-10.1,18.1-13.33c0.07,1.06,0.12,1.93,0.18,2.8
	C108.87,53.6,108.9,56.52,109.13,59.43z M156.94,149.07c-0.62,3.67-2.92,5.45-6.22,6.36c-4.6,1.27-9.26,2.07-14.04,1.91
	c-1.72-0.06-2.27,0.59-2.27,2.25c0.02,4.09,1.86,7.21,4.89,9.77c5.48,4.63,14.81,4.09,19.31-1.04
	C163.31,162.96,163.34,153.75,156.94,149.07z M172.66,149.53c-0.36,0.16-0.61,0.21-0.77,0.36c-0.4,0.39-0.8,0.8-1.14,1.25
	c-3.18,4.29-3.97,8.9-1.41,13.71c2.8,5.25,7.56,7.34,13.26,7.01c7.63-0.44,12.8-5.8,12.8-12.7c0-1.48-0.44-1.91-1.94-1.9
	c-4.84,0.02-9.64-0.5-14.32-1.83C176.04,154.55,173.32,153.2,172.66,149.53z M83.8,107.48c0.1-5.09-2.32-8.57-7-10.25
	c-4.18-1.5-7.73-0.35-10.72,2.71c-2.78,2.84-3.45,6.24-2.4,10.04c0.3,1.09,0.8,1.83,2.02,1.48c5.17-1.48,10.36-1.21,15.53-0.17
	c1.57,0.31,2.09-0.39,2.37-1.6C83.77,108.93,83.75,108.1,83.8,107.48z M96.37,100.91c-0.73,0-1.47-0.07-2.19,0.01
	c-4.21,0.47-5.07,1.46-5.06,5.7c0,0.41,0.01,0.81,0,1.22c-0.05,1.31,0.49,1.86,1.89,1.82c5.42-0.15,10.75,0.57,16.02,1.86
	c0.65,0.16,1.42,0.3,2.01-0.42c1.12-1.37,0.75-5.27-0.71-6.29C104.74,102.31,100.79,100.87,96.37,100.91z M107.12,210.39
	c-0.27-1.75,0.53-2.62,1.63-3.48c1.78-1.4,3.44-2.96,5.09-4.51c1.48-1.39,1.88-2.96,1.12-5.02c-2.34-6.37-5.01-12.58-8.33-18.5
	c-1.62-2.9-3.25-5.82-5.59-8.35c-0.44,0.68,0,0.93,0.2,1.24c5.15,7.97,9.17,16.49,12.57,25.32c0.81,2.1,0.39,3.65-1.42,5.07
	c-2.03,1.59-3.88,3.43-5.78,5.19C105.61,208.28,105.05,209.28,107.12,210.39z M74.83,172.53c-0.18,0.14-0.45,0.23-0.53,0.41
	c-3.89,8.15-6.88,16.66-9.93,25.15c-0.37,1.02-0.46,2.31,0.94,2.98c-0.68-1.37-0.29-2.62,0.21-3.9
	C68.7,189.02,71.2,180.6,74.83,172.53z M101.36,201.41c0.4-7.28-0.52-14.5-2.19-21.66C99.9,186.98,100.63,194.2,101.36,201.41z
	 M71.66,212.32c0.96-0.47,1.54-1.22,2.06-1.97c0.37-0.54,1.22-1.14,0.51-1.87c-1.23-1.27-2.38-2.7-4.56-3.57
	c0.84,1.78,2.21,2.42,3.09,3.49C74.25,210.2,71.41,210.78,71.66,212.32z M113.16,216.05c1.55,1.8,3.45,2.97,2.84,5.39
	C117.34,219.11,116.7,217.84,113.16,216.05z M113.29,215.96c-0.81-1.32-1.67-2.61-3.69-3.1
	C110.67,214.49,111.79,215.44,113.29,215.96z M66.06,201.4c0.54,1.45,1.42,2.51,3.12,2.6C68.14,203.13,67.1,202.27,66.06,201.4z"/>
</svg>
